<svg width="45" height="40" viewBox="0 0 45 40" fill="none" xmlns="http://www.w3.org/2000/svg">
<circle cx="22" cy="20" r="19.5" fill="#FFC700" stroke="black"/>
<rect x="37.7426" y="9.66268" width="5" height="5" rx="0.5" transform="rotate(24.5815 37.7426 9.66268)" fill="#974103" stroke="black"/>
<rect x="10.1929" y="1.63116" width="5" height="5" rx="0.5" transform="rotate(18.2012 10.1929 1.63116)" fill="#974103" stroke="black"/>
<rect x="27.0966" y="4.67941" width="5" height="5" rx="0.5" transform="rotate(28.9107 27.0966 4.67941)" fill="#974103" stroke="black"/>
<rect x="10.6914" y="15.3665" width="8.61026" height="8.26691" rx="0.5" transform="rotate(-32.8864 10.6914 15.3665)" fill="#974103" stroke="black"/>
<rect x="0.705626" y="22.4625" width="5" height="5" rx="0.5" transform="rotate(-48.7091 0.705626 22.4625)" fill="#974103" stroke="black"/>
<rect x="26.7056" y="23.789" width="2.77275" height="2.98977" rx="0.5" transform="rotate(-48.7091 26.7056 23.789)" fill="#974103" stroke="black"/>
<rect x="38.4287" y="23.0483" width="5" height="5" rx="0.5" transform="rotate(-5.74788 38.4287 23.0483)" fill="#974103" stroke="black"/>
<rect x="10.5939" y="30.0278" width="5" height="5" rx="0.5" transform="rotate(-12.1282 10.5939 30.0278)" fill="#974103" stroke="black"/>
<rect x="23.7285" y="33.6686" width="5" height="5" rx="0.5" transform="rotate(-63.2158 23.7285 33.6686)" fill="#974103" stroke="black"/>
</svg>
